<svg width="512" height="512" viewBox="0 0 512 512" fill="none" xmlns="http://www.w3.org/2000/svg">
<rect width="512" height="512" fill="white"/>
<path d="M118.58 321.063C103.075 321.063 90.1535 316.852 79.8166 308.429C69.4798 300.007 62.3014 288.713 58.2815 274.547C54.4531 260.382 53.9745 244.781 56.8459 227.744C59.1429 214.153 63.3542 201.711 69.4798 190.417C75.6053 179.123 83.0709 169.36 91.8763 161.129C100.682 152.707 110.444 146.294 121.164 141.891C131.884 137.297 142.986 135 154.472 135C170.934 135 184.334 139.211 194.67 147.634C205.007 156.057 212.09 167.351 215.918 181.516C219.938 195.49 220.417 210.899 217.354 227.744C214.866 241.718 210.463 254.448 204.146 265.933C197.829 277.227 190.172 286.99 181.175 295.221C172.178 303.452 162.32 309.865 151.6 314.459C140.881 318.862 129.874 321.063 118.58 321.063ZM130.639 313.598C147.102 313.598 161.363 307.568 173.423 295.508C185.482 283.257 193.713 265.742 198.116 242.963C201.179 228.797 202.04 215.685 200.7 203.625C199.552 191.374 196.489 180.654 191.512 171.466C186.535 162.086 179.931 154.812 171.7 149.644C163.469 144.475 153.897 141.891 142.986 141.891C125.758 141.891 111.21 148.304 99.3418 161.129C87.665 173.763 79.8167 190.896 75.7968 212.526C73.1168 225.926 72.3512 238.751 73.4997 251.002C74.8397 263.062 77.8067 273.782 82.4008 283.161C87.1864 292.541 93.5991 300.007 101.639 305.558C109.87 310.918 119.537 313.598 130.639 313.598Z" fill="black"/>
<path d="M279.774 286.464C272.595 286.464 266.195 285.028 260.571 282.157C254.948 279.285 250.223 275.397 246.394 270.492C242.685 265.467 240.113 259.844 238.677 253.623C237.361 247.401 237.361 241.001 238.677 234.421C240.113 227.84 242.865 222.038 246.933 217.013C251 211.988 255.786 208.04 261.289 205.169C266.793 202.297 272.356 200.862 277.979 200.862C280.97 200.862 283.782 201.34 286.414 202.297C289.165 203.135 291.618 204.69 293.771 206.963L283.901 215.936C281.987 211.749 279.594 208.997 276.723 207.681C273.851 206.365 271.219 205.707 268.827 205.707C265.596 205.707 262.605 206.784 259.854 208.937C257.222 210.971 254.889 213.723 252.855 217.192C250.94 220.662 249.505 224.49 248.548 228.678C247.232 236.096 247.351 242.915 248.907 249.136C250.582 255.357 253.214 260.741 256.803 265.288C260.512 269.834 264.878 273.363 269.903 275.876C274.928 278.268 280.192 279.465 285.696 279.465C293.233 279.465 299.993 277.551 305.975 273.722C311.957 269.894 316.742 264.271 320.331 256.853C324.04 249.316 326.134 239.984 326.612 228.857L329.663 229.934C328.706 242.496 325.954 253.024 321.408 261.519C316.981 269.894 311.179 276.175 304.001 280.362C296.822 284.43 288.747 286.464 279.774 286.464ZM245.497 249.316L243.702 247.521C247.89 244.052 252.556 240.283 257.7 236.215C262.964 232.147 268.288 227.96 273.672 223.653C279.056 219.226 283.961 214.8 288.388 210.373C292.934 205.946 296.583 201.58 299.335 197.273C302.086 192.965 303.462 188.838 303.462 184.89C303.462 182.497 303.103 180.702 302.385 179.506C301.787 178.19 301.01 177.173 300.052 176.455C299.095 175.737 298.258 174.96 297.54 174.122C296.822 173.285 296.463 172.088 296.463 170.533C296.463 168.739 297.002 167.363 298.078 166.406C299.155 165.329 300.531 164.79 302.206 164.79C304.838 164.79 306.992 165.987 308.667 168.38C310.341 170.653 311.179 173.763 311.179 177.711C311.179 182.856 309.683 188.06 306.692 193.324C303.821 198.469 299.933 203.554 295.028 208.578C290.242 213.484 284.918 218.329 279.056 223.115C273.313 227.9 267.511 232.506 261.648 236.933C255.786 241.24 250.402 245.368 245.497 249.316ZM295.028 243.214C293.712 243.214 292.575 242.795 291.618 241.958C290.661 241.12 290.182 239.625 290.182 237.471C290.182 234.241 291.139 231.25 293.054 228.498C295.087 225.627 297.66 223.354 300.77 221.679C304.001 219.884 307.291 218.987 310.641 218.987C313.871 218.987 317.161 219.705 320.511 221.141C323.861 222.457 327.211 224.072 330.561 225.986C334.03 227.781 337.32 229.396 340.431 230.831C343.541 232.147 346.413 232.805 349.045 232.805C350.72 232.805 352.036 232.506 352.993 231.908C353.95 231.19 354.429 230.353 354.429 229.396C354.429 228.319 354.07 227.362 353.352 226.524C352.754 225.567 352.096 224.61 351.378 223.653C350.78 222.696 350.48 221.559 350.48 220.243C350.48 218.808 350.839 217.791 351.557 217.192C352.395 216.475 353.591 216.116 355.146 216.116C356.343 216.116 357.36 216.475 358.197 217.192C359.154 217.91 359.633 219.406 359.633 221.679C359.633 224.67 358.795 227.601 357.12 230.472C355.565 233.224 353.412 235.497 350.66 237.292C348.028 239.086 345.097 239.984 341.866 239.984C338.875 239.984 335.645 239.266 332.176 237.83C328.826 236.395 325.356 234.72 321.767 232.805C318.297 230.891 314.888 229.216 311.538 227.781C308.188 226.225 305.018 225.448 302.027 225.448C300.232 225.448 298.856 225.866 297.899 226.704C296.942 227.422 296.463 228.259 296.463 229.216C296.463 230.413 296.703 231.549 297.181 232.626C297.66 233.583 298.138 234.6 298.617 235.677C299.095 236.634 299.335 237.711 299.335 238.907C299.335 239.744 299.036 240.702 298.437 241.778C297.839 242.735 296.703 243.214 295.028 243.214Z" fill="black"/>
<path d="M347.838 374.183C347.455 374.375 346.977 373.992 346.403 373.035C345.828 372.077 345.733 371.408 346.115 371.025C355.112 365.665 362.099 357.625 367.076 346.905C372.053 336.186 375.977 322.977 378.849 307.281L404.404 162.565C405.935 154.334 405.552 148.974 403.255 146.485C401.15 143.997 395.598 142.753 386.601 142.753C386.219 142.753 386.027 142.178 386.027 141.03C386.027 139.881 386.219 139.307 386.601 139.307C390.43 139.307 394.833 139.498 399.81 139.881C404.787 140.073 410.051 140.168 415.602 140.168C421.919 140.168 427.47 140.073 432.256 139.881C437.233 139.498 441.54 139.307 445.177 139.307C445.751 139.307 446.038 139.881 446.038 141.03C446.038 142.178 445.751 142.753 445.177 142.753C439.243 142.753 434.744 143.327 431.682 144.475C428.619 145.624 426.322 147.634 424.79 150.505C423.259 153.377 422.015 157.588 421.058 163.139L396.938 299.528C394.258 314.459 390.908 326.519 386.889 335.707C383.06 345.087 377.987 352.648 371.67 358.391C365.545 364.325 357.601 369.589 347.838 374.183Z" fill="black"/>
</svg>
