<?xml version="1.0" encoding="UTF-8"?>
<svg id="Layer_1" data-name="Layer 1" xmlns="http://www.w3.org/2000/svg" viewBox="0 0 775.07 534.37">
  <path d="M0,424.32c63.8-31.59,138.64-45.7,209.46-52.53-10.25-14.19-33.53-11.27-52.28-18.37-39.65-15.03-85.45-48.62-89.19-94.21-1.94-23.65,6.92-35.18,7.95-52.15.73-12.15-3.98-26.59-2.58-42.02C78.97,103.09,135,39.11,180.68,0c8.96,17.25-10.31,31.2-15.63,47.22-6.41,19.31-7.71,39.66-14.35,58.96-9.68,28.15-28.39,40.84-40.75,66.58,23.67-13.16,71.78-15.17,90.72-31,7.01-5.86,4.24-19.1,11.5-26.67,4.36-4.54,13.17-3.78,16.5-6.84,13.48-12.36,25.22-32.93,51.45-29.9,22.17,2.56,11.64,26.76,15.46,31.58,5.24,6.62,21.51,5.55,26.57,15.6s7.39,33.06-7.02,32.3l-.88,7.04c20.61,15.56,25.92,41.1-7.1,38.99-43.49-2.79-82.78-35.74-121.16-36.63-44.56-1.03-107.56,37.23-107.57,86.76-.01,37.31,36.59,70.54,69.28,82.72,108.52,40.44,267.6,1.87,384.08,8.74,32.48,1.91,70.55,11.98,101.88,21.15,2.36-9.03-3.61-10.49-7.77-15.75-36.6-46.4-64.29-68.73-84.75-129.99-13.06-39.1-12.87-90.95-27.64-129.49-6.86-17.9-52.09-62.04-42.06-75.6,4.5.7,9.79-3.78,13.05-3.29,19.37,2.88,68.86,61.22,95.05,67.87,63.33,63.53,53.48,155.89,70.42,235.97,6.93,32.74,35.6,69.83,62.1,89.79,22.08,16.62,57.91,21.14,63.01,54.78-2.37,2.58-52.04-33.82-59.17-37.67-21.56-11.64-140.78-63.32-157.25-60.58-25.38,4.22-51.42,51.68-71.45,69.6-36.23,32.41-89.22,63.77-135.18,79.55-15.35,5.27-80.55,24-92.48,22.51-6.11-.76-12.51-3.75-13.39-10.48,38.27-8.91,51.05-43.18,78.9-65.19,55.93-44.2,128.45-64.11,192.37-90.7,7.73-3.22,14.26,3.22,11.52-11.75-60.72-4.13-120.52,5.75-180.72,10.39-29.12,2.25-65.34-3.69-93.18,2.11-31.66,6.6-61.46,32.22-91.34,43.82-51.31,19.93-106.63,30.12-161.1,22.24l-2.59-10.41Z"/>
</svg>